<svg width="48" height="48" viewBox="0 0 48 48" fill="none" xmlns="http://www.w3.org/2000/svg">
<path d="M16.25 16C15.0162 16 14 17.0162 14 18.25V29.75C14 30.9838 15.0162 32 16.25 32H31.75C32.9838 32 34 30.9838 34 29.75V20.75C34 19.5162 32.9838 18.5 31.75 18.5H24.0215L21.7861 16.6377C21.292 16.2261 20.6696 16 20.0264 16H16.25ZM16.25 17.5H20.0264C20.3192 17.5 20.6013 17.6027 20.8262 17.79L22.5781 19.25L20.8262 20.71C20.6013 20.8973 20.3192 21 20.0264 21H15.5V18.25C15.5 17.8268 15.8268 17.5 16.25 17.5ZM24.0215 20H31.75C32.1732 20 32.5 20.3268 32.5 20.75V29.75C32.5 30.1732 32.1732 30.5 31.75 30.5H16.25C15.8268 30.5 15.5 30.1732 15.5 29.75V22.5H20.0264C20.6696 22.5 21.292 22.2739 21.7861 21.8623L24.0215 20Z" fill="{color}"/>
</svg>
