<svg width="48" height="48" viewBox="0 0 48 48" fill="none" xmlns="http://www.w3.org/2000/svg">
<path d="M23.9729 13.0004C23.7952 13.0065 23.6241 13.0692 23.4846 13.1794L15.5885 19.4001C14.5864 20.1899 14 21.3968 14 22.6727V33.2782C14 34.0357 14.6313 34.6671 15.3889 34.6671H20.9444C21.702 34.6671 22.3333 34.0357 22.3333 33.2782V27.7226C22.3333 27.5587 22.4472 27.4448 22.6111 27.4448H25.3889C25.5528 27.4448 25.6667 27.5587 25.6667 27.7226V33.2782C25.6667 34.0357 26.298 34.6671 27.0556 34.6671H32.6111C33.3687 34.6671 34 34.0357 34 33.2782V22.6727C34 21.3968 33.4136 20.1899 32.4115 19.4001L24.5154 13.1794C24.3613 13.0577 24.1692 12.9943 23.9729 13.0004ZM24 14.8949L31.3806 20.7098C31.9829 21.1845 32.3333 21.9064 32.3333 22.6727V33.0004H27.3333V27.7226C27.3333 26.6588 26.4528 25.7782 25.3889 25.7782H22.6111C21.5472 25.7782 20.6667 26.6588 20.6667 27.7226V33.0004H15.6667V22.6727C15.6667 21.9064 16.0171 21.1845 16.6194 20.7098L24 14.8949Z" fill="{color}"/>
</svg>
