<svg width="48" height="48" viewBox="0 0 48 48" fill="none" xmlns="http://www.w3.org/2000/svg">
<circle cx="24" cy="24" r="11.125" stroke="{color}" stroke-width="1.75"/>
<path d="M25.5 23L25.5 29.5C25.5 30.25 24.75 31 24 31C23.25 31 22.5 30.25 22.5 29.5L22.5 23C22.5 22.1716 23.1716 21.5 24 21.5C24.8285 21.5 25.5 22.1716 25.5 23Z" fill="{color}"/>
<path d="M25.5 19C25.5 19.8284 24.8284 20.5 24 20.5C23.1716 20.5 22.5 19.8284 22.5 19C22.5 18.1716 23.1716 17.5 24 17.5C24.8284 17.5 25.5 18.1716 25.5 19Z" fill="{color}"/>
</svg>
