<svg width="48" height="48" viewBox="0 0 48 48" fill="none" xmlns="http://www.w3.org/2000/svg">
<path d="M25.3388 12C26.4585 14.6988 21.321 16.3673 20.8434 18.6147C20.4069 20.6826 23.8939 23.0841 23.8965 23.0841C23.3673 22.2306 22.984 21.5232 22.4521 20.1911C21.5524 17.9411 27.9216 15.9074 25.3388 12ZM28.7455 15.7404C28.7455 15.7404 24.2466 16.0377 24.0172 19.0389C23.9155 20.3732 25.1997 21.0849 25.2369 22.0598C25.2668 22.8531 24.4695 23.5135 24.4695 23.5135C24.4695 23.5135 25.9158 23.2294 26.3673 22.0192C26.8683 20.6754 25.3951 19.7552 25.5468 18.6791C25.6884 17.6516 28.7455 15.7404 28.7455 15.7404ZM20.806 23.5135C20.806 23.5135 15.7876 23.4262 15.7876 24.9548C15.7876 26.5483 22.572 26.6624 27.4196 25.6817C27.4196 25.6817 28.7135 24.7591 29.0585 24.413C25.8832 25.0871 18.6327 25.1781 18.6327 24.5929C18.6327 24.0536 20.806 23.5135 20.806 23.5135ZM31.2048 23.5655C30.6213 23.5377 29.9707 23.7414 29.3829 24.1832C30.5383 23.9239 31.5116 24.6594 31.5116 25.507C31.5116 27.4178 28.864 29.2225 28.864 29.2225C28.864 29.2225 32.9632 28.7345 32.9632 25.5975C32.9636 24.301 32.1774 23.612 31.2048 23.5655ZM19.7204 26.4699C18.9217 26.4699 17.7373 27.1121 17.7373 27.7292C17.7373 28.9671 23.7261 29.9227 28.158 28.1098L26.6231 27.227C23.6171 28.2263 18.0805 27.8121 19.7204 26.4699ZM20.4566 29.2433C19.3657 29.2433 18.6597 29.9462 18.6597 30.4579C18.6597 32.0519 25.1661 32.2131 27.7441 30.5951L26.1063 29.5074C24.1805 30.354 19.3423 30.47 20.4566 29.2433ZM16.9283 30.5036C15.1536 30.4678 14 31.3011 14 31.9896C14 35.6585 32.1875 35.4815 32.1875 31.7328C32.1875 31.1088 31.4837 30.8147 31.2318 30.6742C32.7173 34.2563 16.3532 33.9785 16.3532 31.8638C16.3532 31.383 17.5579 30.9123 18.6711 31.1348L17.7248 30.5754C17.4475 30.5318 17.1818 30.5087 16.9283 30.5036ZM34 33.0472C31.2357 35.7774 24.2271 36.772 17.1789 35.0853C24.2271 38.0876 33.9665 36.3966 34 33.0472Z" fill="{color}"/>
</svg>
