<svg width="48" height="48" viewBox="0 0 48 48" fill="none" xmlns="http://www.w3.org/2000/svg">
<path d="M14 17.5C14 18.3284 14.6716 19 15.5 19C16.3284 19 17 18.3284 17 17.5C17 16.6716 16.3284 16 15.5 16C14.6716 16 14 16.6716 14 17.5Z" fill="{color}"/>
<path fill-rule="evenodd" clip-rule="evenodd" d="M34 17.5C34 18.0523 33.5523 18.5 33 18.5H21C20.4477 18.5 20 18.0523 20 17.5C20 16.9477 20.4477 16.5 21 16.5H33C33.5523 16.5 34 16.9477 34 17.5Z" fill="{color}"/>
<path d="M14 24C14 24.8284 14.6716 25.5 15.5 25.5C16.3284 25.5 17 24.8284 17 24C17 23.1716 16.3284 22.5 15.5 22.5C14.6716 22.5 14 23.1716 14 24Z" fill="{color}"/>
<path fill-rule="evenodd" clip-rule="evenodd" d="M34 24C34 24.5523 33.5523 25 33 25H21C20.4477 25 20 24.5523 20 24C20 23.4477 20.4477 23 21 23H33C33.5523 23 34 23.4477 34 24Z" fill="{color}"/>
<path d="M14 31C14 31.8284 14.6716 32.5 15.5 32.5C16.3284 32.5 17 31.8284 17 31C17 30.1716 16.3284 29.5 15.5 29.5C14.6716 29.5 14 30.1716 14 31Z" fill="{color}"/>
<path fill-rule="evenodd" clip-rule="evenodd" d="M34 31C34 31.5523 33.5523 32 33 32H21C20.4477 32 20 31.5523 20 31C20 30.4477 20.4477 30 21 30H33C33.5523 30 34 30.4477 34 31Z" fill="{color}"/>
</svg>
