<svg width="48" height="48" viewBox="0 0 48 48" fill="none" xmlns="http://www.w3.org/2000/svg">
<g clip-path="url(#clip0_238_1214)">
<path d="M24 12C22.2023 12 20.7273 13.475 20.7273 15.2727H17.1818C16.1373 15.2727 15.2727 16.1373 15.2727 17.1818V20.7273C13.475 20.7273 12 22.2023 12 24C12 25.7977 13.475 27.2727 15.2727 27.2727V30.8182C15.2727 31.8627 16.1373 32.7273 17.1818 32.7273H20.7273C20.7273 34.525 22.2023 36 24 36C25.7977 36 27.2727 34.525 27.2727 32.7273H30.8182C31.8627 32.7273 32.7273 31.8627 32.7273 30.8182V26.4545C32.7272 26.2376 32.641 26.0295 32.4876 25.876C32.3342 25.7226 32.1261 25.6364 31.9091 25.6364H30.5455C29.6323 25.6364 28.9091 24.9132 28.9091 24C28.9091 23.0868 29.6323 22.3636 30.5455 22.3636H31.9091C32.1261 22.3636 32.3342 22.2774 32.4876 22.124C32.641 21.9705 32.7272 21.7624 32.7273 21.5455V17.1818C32.7273 16.1373 31.8627 15.2727 30.8182 15.2727H27.2727C27.2727 13.475 25.7977 12 24 12ZM24 13.6364C24.9132 13.6364 25.6364 14.3596 25.6364 15.2727V16.0909C25.6364 16.3079 25.7226 16.516 25.876 16.6694C26.0295 16.8229 26.2376 16.9091 26.4545 16.9091H30.8182C30.9791 16.9091 31.0909 17.0209 31.0909 17.1818V20.7273H30.5455C28.7477 20.7273 27.2727 22.2023 27.2727 24C27.2727 25.7977 28.7477 27.2727 30.5455 27.2727H31.0909V30.8182C31.0909 30.9791 30.9791 31.0909 30.8182 31.0909H26.4545C26.2376 31.0909 26.0295 31.1771 25.876 31.3306C25.7226 31.484 25.6364 31.6921 25.6364 31.9091V32.7273C25.6364 33.6404 24.9132 34.3636 24 34.3636C23.0868 34.3636 22.3636 33.6404 22.3636 32.7273V31.9091C22.3636 31.6921 22.2774 31.484 22.124 31.3306C21.9705 31.1771 21.7624 31.0909 21.5455 31.0909H17.1818C17.0209 31.0909 16.9091 30.9791 16.9091 30.8182V26.4545C16.9091 26.2376 16.8229 26.0295 16.6694 25.876C16.516 25.7226 16.3079 25.6364 16.0909 25.6364H15.2727C14.3596 25.6364 13.6364 24.9132 13.6364 24C13.6364 23.0868 14.3596 22.3636 15.2727 22.3636H16.0909C16.3079 22.3636 16.516 22.2774 16.6694 22.124C16.8229 21.9705 16.9091 21.7624 16.9091 21.5455V17.1818C16.9091 17.0209 17.0209 16.9091 17.1818 16.9091H21.5455C21.7624 16.9091 21.9705 16.8229 22.124 16.6694C22.2774 16.516 22.3636 16.3079 22.3636 16.0909V15.2727C22.3636 14.3596 23.0868 13.6364 24 13.6364Z" fill="{color}"/>
</g>
<defs>
<clipPath id="clip0_238_1214">
<rect width="48" height="48" fill="{color}"/>
</clipPath>
</defs>
</svg>
