<svg width="48" height="48" viewBox="0 0 48 48" fill="none" xmlns="http://www.w3.org/2000/svg">
<path d="M24 13C23.0968 13 22.2259 13.1142 21.3946 13.3076C21.2212 13.3481 21.0647 13.4414 20.9467 13.5747C20.8286 13.7079 20.7549 13.8746 20.7357 14.0516L20.5533 15.7139C20.4937 16.2587 20.179 16.7407 19.7042 17.015C19.2304 17.2887 18.6553 17.3191 18.1537 17.0989H18.1526L16.6256 16.4265C16.4627 16.3549 16.2816 16.3355 16.1073 16.3712C15.933 16.4069 15.774 16.4958 15.6524 16.6257C14.4653 17.8912 13.5542 19.4236 13.0369 21.134C12.9853 21.3042 12.9879 21.4862 13.0442 21.655C13.1005 21.8237 13.2078 21.9708 13.3512 22.0759L14.7059 23.0693C15.1483 23.3945 15.4085 23.9071 15.4085 24.4554C15.4085 25.0039 15.1483 25.5169 14.7059 25.8414L13.3512 26.8337C13.2078 26.9389 13.1005 27.0859 13.0442 27.2547C12.9879 27.4234 12.9853 27.6054 13.0369 27.7756C13.5542 29.4858 14.4645 31.0193 15.6524 32.2851C15.7741 32.4148 15.9331 32.5035 16.1075 32.5389C16.2818 32.5744 16.4628 32.5549 16.6256 32.4831L18.1526 31.8107C18.6544 31.5901 19.2301 31.6218 19.7042 31.8958C20.179 32.1701 20.4937 32.652 20.5533 33.1968L20.7357 34.8592C20.755 35.0358 20.8287 35.2021 20.9465 35.3351C21.0643 35.4681 21.2205 35.5614 21.3935 35.602C22.2252 35.7961 23.0968 35.9107 24 35.9107C24.9032 35.9107 25.7741 35.7965 26.6054 35.6031C26.7788 35.5626 26.9353 35.4693 27.0533 35.336C27.1714 35.2028 27.2451 35.0361 27.2643 34.8592L27.4467 33.1968C27.5063 32.652 27.821 32.1701 28.2958 31.8958C28.7696 31.622 29.3447 31.5905 29.8463 31.8107L31.3744 32.4831C31.5372 32.5549 31.7182 32.5744 31.8925 32.5389C32.0669 32.5035 32.2259 32.4148 32.3476 32.2851C33.5347 31.0195 34.4458 29.486 34.9631 27.7756C35.0147 27.6054 35.0121 27.4234 34.9558 27.2547C34.8995 27.0859 34.7922 26.9389 34.6488 26.8337L33.2941 25.8414C32.8517 25.5169 32.5915 25.0039 32.5915 24.4554C32.5915 23.9068 32.8517 23.3938 33.2941 23.0693L34.6488 22.077C34.7922 21.9719 34.8995 21.8248 34.9558 21.6561C35.0121 21.4874 35.0147 21.3053 34.9631 21.1351C34.4458 19.4247 33.5347 17.8912 32.3476 16.6257C32.2259 16.496 32.0669 16.4073 31.8925 16.3718C31.7182 16.3363 31.5372 16.3558 31.3744 16.4277L29.8463 17.1C29.3447 17.3202 28.7696 17.2887 28.2958 17.015C27.821 16.7407 27.5063 16.2587 27.4467 15.7139L27.2643 14.0516C27.245 13.8749 27.1713 13.7087 27.0535 13.5756C26.9357 13.4426 26.7795 13.3494 26.6065 13.3088C25.7748 13.1146 24.9032 13 24 13ZM24 14.7183C24.558 14.7183 25.0939 14.8185 25.631 14.913L25.7384 15.9008C25.8575 16.9884 26.4898 17.9558 27.4366 18.5028C28.3841 19.0502 29.5376 19.1132 30.5387 18.6729L31.4471 18.2735C32.1446 19.1111 32.6969 20.0572 33.0826 21.0937L32.2772 21.6844C31.3953 22.3313 30.8732 23.3612 30.8732 24.4554C30.8732 25.5495 31.3953 26.5795 32.2772 27.2263L33.0826 27.817C32.6969 28.8535 32.1446 29.7996 31.4471 30.6372L30.5387 30.2379C29.5376 29.7976 28.3841 29.8605 27.4366 30.4079C26.4898 30.9549 25.8575 31.9223 25.7384 33.01L25.631 33.9978C25.094 34.092 24.5578 34.1924 24 34.1924C23.442 34.1924 22.9061 34.0923 22.369 33.9978L22.2616 33.01C22.1425 31.9223 21.5102 30.9549 20.5634 30.4079C19.6159 29.8605 18.4624 29.7976 17.4613 30.2379L16.5529 30.6372C15.8552 29.7997 15.3031 28.8536 14.9174 27.817L15.7228 27.2263C16.6047 26.5795 17.1268 25.5495 17.1268 24.4554C17.1268 23.3612 16.6043 22.3306 15.7228 21.6833L14.9174 21.0926C15.3033 20.0557 15.8561 19.1102 16.554 18.2724L17.4613 18.6717C18.4624 19.112 19.6159 19.0502 20.5634 18.5028C21.5102 17.9558 22.1425 16.9884 22.2616 15.9008L22.369 14.913C22.906 14.8187 23.4422 14.7183 24 14.7183ZM24 19.8732C21.4795 19.8732 19.4179 21.9349 19.4179 24.4554C19.4179 26.9758 21.4795 29.0375 24 29.0375C26.5205 29.0375 28.5821 26.9758 28.5821 24.4554C28.5821 21.9349 26.5205 19.8732 24 19.8732ZM24 21.5915C25.5918 21.5915 26.8638 22.8635 26.8638 24.4554C26.8638 26.0472 25.5918 27.3192 24 27.3192C22.4082 27.3192 21.1362 26.0472 21.1362 24.4554C21.1362 22.8635 22.4082 21.5915 24 21.5915Z" fill="{color}"/>
</svg>
