<svg width="48" height="48" viewBox="0 0 48 48" fill="none" xmlns="http://www.w3.org/2000/svg">
<path d="M24 12C23.0147 12 22.0647 12.1246 21.1577 12.3356C20.9686 12.3797 20.7979 12.4815 20.6691 12.6269C20.5403 12.7723 20.4599 12.9541 20.4389 13.1472L20.24 14.9607C20.1749 15.5549 19.8317 16.0807 19.3137 16.38C18.7968 16.6786 18.1694 16.7117 17.6223 16.4715H17.621L15.9552 15.738C15.7775 15.6599 15.58 15.6388 15.3898 15.6777C15.1996 15.7166 15.0262 15.8136 14.8935 15.9553C13.5985 17.3359 12.6046 19.0076 12.0402 20.8734C11.984 21.0591 11.9868 21.2577 12.0482 21.4418C12.1096 21.6258 12.2267 21.7863 12.3831 21.901L13.861 22.9847C14.3436 23.3395 14.6274 23.8987 14.6274 24.4968C14.6274 25.0952 14.3436 25.6548 13.861 26.0088L12.3831 27.0913C12.2267 27.206 12.1096 27.3665 12.0482 27.5505C11.9868 27.7346 11.984 27.9332 12.0402 28.1189C12.6046 29.9845 13.5977 31.6575 14.8935 33.0382C15.0263 33.1797 15.1998 33.2765 15.39 33.3152C15.5802 33.3539 15.7777 33.3326 15.9552 33.2543L17.621 32.5208C18.1684 32.2801 18.7965 32.3147 19.3137 32.6135C19.8317 32.9128 20.1749 33.4386 20.24 34.0329L20.4389 35.8464C20.4601 36.039 20.5404 36.2204 20.6689 36.3656C20.7974 36.5107 20.9678 36.6124 21.1565 36.6567C22.0639 36.8684 23.0147 36.9935 24 36.9935C24.9853 36.9935 25.9353 36.8689 26.8423 36.6579C27.0314 36.6138 27.2021 36.512 27.3309 36.3666C27.4597 36.2212 27.5401 36.0394 27.5611 35.8464L27.76 34.0329C27.8251 33.4386 28.1683 32.9128 28.6863 32.6135C29.2032 32.3149 29.8306 32.2806 30.3777 32.5208L32.0448 33.2543C32.2223 33.3326 32.4198 33.3539 32.61 33.3152C32.8002 33.2765 32.9737 33.1797 33.1065 33.0382C34.4015 31.6577 35.3954 29.9847 35.9598 28.1189C36.016 27.9332 36.0132 27.7346 35.9518 27.5505C35.8904 27.3665 35.7733 27.206 35.6169 27.0913L34.139 26.0088C33.6564 25.6548 33.3726 25.0952 33.3726 24.4968C33.3726 23.8983 33.6564 23.3387 34.139 22.9847L35.6169 21.9022C35.7733 21.7875 35.8904 21.627 35.9518 21.443C36.0132 21.2589 36.016 21.0604 35.9598 20.8747C35.3954 19.0088 34.4015 17.3359 33.1065 15.9553C32.9737 15.8138 32.8002 15.717 32.61 15.6783C32.4198 15.6396 32.2223 15.6609 32.0448 15.7393L30.3777 16.4727C29.8306 16.7129 29.2032 16.6786 28.6863 16.38C28.1683 16.0807 27.8251 15.5549 27.76 14.9607L27.5611 13.1472C27.5399 12.9545 27.4596 12.7731 27.3311 12.628C27.2026 12.4828 27.0322 12.3811 26.8435 12.3368C25.9361 12.1251 24.9853 12 24 12ZM24 13.8745C24.6088 13.8745 25.1934 13.9838 25.7793 14.0869L25.8965 15.1645C26.0264 16.351 26.7161 17.4063 27.749 18.0031C28.7826 18.6002 30.041 18.6689 31.1332 18.1886L32.1241 17.7529C32.8851 18.6666 33.4875 19.6987 33.9083 20.8295L33.0296 21.4739C32.0676 22.1796 31.4981 23.3031 31.4981 24.4968C31.4981 25.6904 32.0676 26.814 33.0296 27.5197L33.9083 28.164C33.4875 29.2948 32.8851 30.3269 32.1241 31.2406L31.1332 30.8049C30.041 30.3246 28.7826 30.3933 27.749 30.9904C26.7161 31.5872 26.0264 32.6425 25.8965 33.8291L25.7793 34.9067C25.1934 35.0094 24.6085 35.119 24 35.119C23.3912 35.119 22.8066 35.0097 22.2207 34.9067L22.1035 33.8291C21.9736 32.6425 21.2839 31.5872 20.251 30.9904C19.2174 30.3933 17.959 30.3246 16.8668 30.8049L15.8759 31.2406C15.1148 30.327 14.5124 29.2949 14.0917 28.164L14.9704 27.5197C15.9324 26.814 16.5019 25.6904 16.5019 24.4968C16.5019 23.3031 15.9319 22.1788 14.9704 21.4726L14.0917 20.8283C14.5127 19.6971 15.1157 18.6657 15.8771 17.7517L16.8668 18.1874C17.959 18.6677 19.2174 18.6002 20.251 18.0031C21.2839 17.4063 21.9736 16.351 22.1035 15.1645L22.2207 14.0869C22.8066 13.9841 23.3915 13.8745 24 13.8745ZM24 19.4981C21.2504 19.4981 19.0013 21.7472 19.0013 24.4968C19.0013 27.2464 21.2504 29.4955 24 29.4955C26.7496 29.4955 28.9987 27.2464 28.9987 24.4968C28.9987 21.7472 26.7496 19.4981 24 19.4981ZM24 21.3726C25.7365 21.3726 27.1242 22.7602 27.1242 24.4968C27.1242 26.2333 25.7365 27.6209 24 27.6209C22.2635 27.6209 20.8758 26.2333 20.8758 24.4968C20.8758 22.7602 22.2635 21.3726 24 21.3726Z" fill="{color}"/>
</svg>
