<svg width="48" height="48" viewBox="0 0 48 48" fill="none" xmlns="http://www.w3.org/2000/svg">
<path d="M24 13C22.1711 13 20.6706 14.5005 20.6706 16.3294H17.2003C17.151 16.3209 17.1009 16.3169 17.0508 16.3175C17.0104 16.3185 16.9702 16.3225 16.9305 16.3294H14.8442C14.7339 16.3278 14.6244 16.3482 14.522 16.3893C14.4197 16.4305 14.3265 16.4915 14.248 16.569C14.1694 16.6464 14.1071 16.7387 14.0645 16.8405C14.0219 16.9422 14 17.0514 14 17.1617C14 17.272 14.0219 17.3812 14.0645 17.483C14.1071 17.5848 14.1694 17.677 14.248 17.7545C14.3265 17.8319 14.4197 17.893 14.522 17.9341C14.6244 17.9753 14.7339 17.9956 14.8442 17.9941H16.2314V32.1439C16.2314 33.8196 17.6077 35.1959 19.2834 35.1959H28.7166C30.3923 35.1959 31.7686 33.8196 31.7686 32.1439V17.9941H33.1558C33.2661 17.9956 33.3756 17.9753 33.478 17.9341C33.5803 17.893 33.6735 17.8319 33.752 17.7545C33.8306 17.677 33.8929 17.5848 33.9355 17.483C33.9781 17.3812 34 17.272 34 17.1617C34 17.0514 33.9781 16.9422 33.9355 16.8405C33.8929 16.7387 33.8306 16.6464 33.752 16.569C33.6735 16.4915 33.5803 16.4305 33.478 16.3893C33.3756 16.3482 33.2661 16.3278 33.1558 16.3294H31.0728C30.9834 16.3147 30.8923 16.3147 30.8029 16.3294H27.3294C27.3294 14.5005 25.8289 13 24 13ZM24 14.6647C24.929 14.6647 25.6647 15.4004 25.6647 16.3294H22.3353C22.3353 15.4004 23.071 14.6647 24 14.6647ZM17.8961 17.9941H30.1039V32.1439C30.1039 32.9198 29.4925 33.5312 28.7166 33.5312H19.2834C18.5075 33.5312 17.8961 32.9198 17.8961 32.1439V17.9941ZM22.0449 20.7566C21.8243 20.7601 21.6141 20.8509 21.4605 21.0092C21.3069 21.1675 21.2224 21.3803 21.2255 21.6009V29.9244C21.224 30.0347 21.2443 30.1442 21.2855 30.2465C21.3266 30.3489 21.3877 30.442 21.4651 30.5206C21.5425 30.5991 21.6348 30.6615 21.7366 30.7041C21.8383 30.7466 21.9476 30.7686 22.0579 30.7686C22.1682 30.7686 22.2774 30.7466 22.3791 30.7041C22.4809 30.6615 22.5732 30.5991 22.6506 30.5206C22.7281 30.442 22.7891 30.3489 22.8303 30.2465C22.8714 30.1442 22.8918 30.0347 22.8902 29.9244V21.6009C22.8918 21.4895 22.871 21.3789 22.8291 21.2757C22.7872 21.1725 22.7249 21.0787 22.6461 21C22.5673 20.9212 22.4734 20.8591 22.3702 20.8173C22.2669 20.7755 22.1563 20.7549 22.0449 20.7566ZM25.9291 20.7566C25.7086 20.7601 25.4984 20.8509 25.3448 21.0092C25.1911 21.1675 25.1066 21.3803 25.1098 21.6009V29.9244C25.1082 30.0347 25.1286 30.1442 25.1697 30.2465C25.2109 30.3489 25.2719 30.442 25.3494 30.5206C25.4268 30.5991 25.5191 30.6615 25.6209 30.7041C25.7226 30.7466 25.8318 30.7686 25.9421 30.7686C26.0524 30.7686 26.1617 30.7466 26.2634 30.7041C26.3652 30.6615 26.4575 30.5991 26.5349 30.5206C26.6123 30.442 26.6734 30.3489 26.7145 30.2465C26.7557 30.1442 26.776 30.0347 26.7745 29.9244V21.6009C26.7761 21.4895 26.7553 21.3789 26.7134 21.2757C26.6714 21.1725 26.6092 21.0787 26.5304 21C26.4515 20.9212 26.3577 20.8591 26.2544 20.8173C26.1512 20.7755 26.0405 20.7549 25.9291 20.7566Z" fill="{color}"/>
</svg>
